<mxfile host="app.diagrams.net" modified="2023-11-14T03:54:29.217Z" agent="Mozilla/5.0 (Windows NT 10.0; Win64; x64) AppleWebKit/537.36 (KHTML, like Gecko) Chrome/119.0.0.0 Safari/537.36" etag="34hBOwHaAitDG6fC1iEc" version="22.1.0" type="github" pages="2">
  <diagram name="Page-1" id="HwX00dk__h2ag6gLHclP">
    <mxGraphModel dx="2074" dy="1110" grid="1" gridSize="10" guides="1" tooltips="1" connect="1" arrows="1" fold="1" page="1" pageScale="1" pageWidth="850" pageHeight="1100" math="0" shadow="0">
      <root>
        <mxCell id="0" />
        <mxCell id="1" parent="0" />
        <mxCell id="VmtdbH44lMCPrnUxbE_m-2" value="Using the example of a database you can create a new database connection" style="text;html=1;align=left;verticalAlign=middle;resizable=0;points=[];autosize=1;strokeColor=none;fillColor=none;" vertex="1" parent="1">
          <mxGeometry x="40" y="80" width="430" height="30" as="geometry" />
        </mxCell>
        <mxCell id="VmtdbH44lMCPrnUxbE_m-3" value="&lt;div style=&quot;text-align: left;&quot;&gt;&lt;span style=&quot;background-color: initial;&quot;&gt;When you connect to a database in go you get back a pointer&amp;nbsp; to a sql.DB&lt;/span&gt;&lt;/div&gt;&lt;div style=&quot;text-align: left;&quot;&gt;&lt;span style=&quot;background-color: initial;&quot;&gt;a sql.DB looks like this&amp;nbsp;https://cs.opensource.google/go/go/+/refs/tags/go1.21.4:src/database/sql/sql.go;l=455&lt;/span&gt;&lt;/div&gt;&lt;div style=&quot;text-align: left;&quot;&gt;&lt;span style=&quot;background-color: initial;&quot;&gt;not only does it hold all those variable that you don&#39;t really need to care about it also has methods on it like&lt;/span&gt;&lt;/div&gt;&lt;div style=&quot;text-align: left;&quot;&gt;&lt;span style=&quot;background-color: initial;&quot;&gt;Exec&lt;/span&gt;&lt;/div&gt;&lt;div style=&quot;text-align: left;&quot;&gt;&lt;span style=&quot;background-color: initial;&quot;&gt;Query&lt;/span&gt;&lt;/div&gt;&lt;div style=&quot;text-align: left;&quot;&gt;&lt;span style=&quot;background-color: initial;&quot;&gt;QueryRow&lt;/span&gt;&lt;/div&gt;&lt;div style=&quot;text-align: left;&quot;&gt;&lt;span style=&quot;background-color: initial;&quot;&gt;These are really the only thing we care about so when we get back a sql.DB we can&amp;nbsp; use sql.DB.Exec()&lt;/span&gt;&lt;/div&gt;" style="text;html=1;align=center;verticalAlign=middle;resizable=0;points=[];autosize=1;strokeColor=none;fillColor=none;" vertex="1" parent="1">
          <mxGeometry x="40" y="118" width="600" height="110" as="geometry" />
        </mxCell>
        <mxCell id="VmtdbH44lMCPrnUxbE_m-4" value="&lt;div style=&quot;text-align: center;&quot;&gt;&lt;span style=&quot;background-color: initial;&quot;&gt;*sql.DB&lt;/span&gt;&lt;/div&gt;Exec()&lt;br&gt;Query()&lt;br&gt;&lt;div style=&quot;&quot;&gt;&lt;span style=&quot;background-color: initial;&quot;&gt;QueryRow()&lt;/span&gt;&lt;/div&gt;" style="whiteSpace=wrap;html=1;aspect=fixed;align=left;" vertex="1" parent="1">
          <mxGeometry x="120" y="280" width="80" height="80" as="geometry" />
        </mxCell>
        <mxCell id="VmtdbH44lMCPrnUxbE_m-5" value="&lt;div style=&quot;text-align: left;&quot;&gt;&lt;span style=&quot;background-color: initial;&quot;&gt;Lets represent sql.DB as a variable in our chart using the below box and list a couple methods it has that are useful to us&lt;/span&gt;&lt;/div&gt;" style="text;html=1;align=center;verticalAlign=middle;resizable=0;points=[];autosize=1;strokeColor=none;fillColor=none;" vertex="1" parent="1">
          <mxGeometry x="40" y="228" width="660" height="30" as="geometry" />
        </mxCell>
        <mxCell id="VmtdbH44lMCPrnUxbE_m-6" value="&lt;div style=&quot;text-align: left;&quot;&gt;&lt;span style=&quot;background-color: initial;&quot;&gt;Next we are going to create a new struct to handle our persistence layer, we could name it anything but lets call it Repo for now to stand for repository&lt;/span&gt;&lt;/div&gt;&lt;div style=&quot;text-align: left;&quot;&gt;&lt;span style=&quot;background-color: initial;&quot;&gt;This struct will have methods on it that will do some work to Insert, Update, or Delete a user in order to do this it will need to be able to access&lt;/span&gt;&lt;/div&gt;&lt;div style=&quot;text-align: left;&quot;&gt;&lt;span style=&quot;background-color: initial;&quot;&gt;a database and query it with the appropriate SQL query it doesn&#39;t care what the database is, it could be mySQL, PostgreSQL, SQL, or SQLite&lt;/span&gt;&lt;/div&gt;&lt;div style=&quot;text-align: left;&quot;&gt;&lt;span style=&quot;background-color: initial;&quot;&gt;in order to do this it will need a variable that has methods that it can use namely Exec(), Query(), QueryRow()&lt;/span&gt;&lt;/div&gt;" style="text;html=1;align=center;verticalAlign=middle;resizable=0;points=[];autosize=1;strokeColor=none;fillColor=none;" vertex="1" parent="1">
          <mxGeometry x="40" y="400" width="820" height="70" as="geometry" />
        </mxCell>
        <mxCell id="VmtdbH44lMCPrnUxbE_m-7" value="&lt;div style=&quot;text-align: left;&quot;&gt;&lt;span style=&quot;background-color: initial;&quot;&gt;Repo {&lt;/span&gt;&lt;/div&gt;&lt;div style=&quot;text-align: left;&quot;&gt;&amp;nbsp; &amp;nbsp; *sql.DB&lt;/div&gt;&lt;div style=&quot;text-align: left;&quot;&gt;&lt;span style=&quot;background-color: initial;&quot;&gt;}&lt;/span&gt;&lt;/div&gt;" style="whiteSpace=wrap;html=1;aspect=fixed;" vertex="1" parent="1">
          <mxGeometry x="120" y="500" width="80" height="80" as="geometry" />
        </mxCell>
        <mxCell id="VmtdbH44lMCPrnUxbE_m-8" value="We could hold an interface that expects those three methods and that would be enough, but we haven&#39;t learned about interfaces yet,&lt;br&gt;so we will just tell it that we want to store a *sql.DB since we know that sql.DB package will support any of the SQL databases we listed earlier.&lt;br&gt;We also happen to know that those methods we need exist on sql.DB this is kind of cheating but it will work for now." style="text;html=1;align=left;verticalAlign=middle;resizable=0;points=[];autosize=1;strokeColor=none;fillColor=none;" vertex="1" parent="1">
          <mxGeometry x="40" y="590" width="780" height="60" as="geometry" />
        </mxCell>
        <mxCell id="VmtdbH44lMCPrnUxbE_m-9" value="&lt;div style=&quot;text-align: left;&quot;&gt;&lt;span style=&quot;background-color: initial;&quot;&gt;The first thing we will do it to connect to a database we can do this with sql.Open() we will give it a conneciton string&lt;/span&gt;&lt;/div&gt;&lt;div style=&quot;text-align: left;&quot;&gt;&lt;span style=&quot;background-color: initial;&quot;&gt;and it will return us a sql.DB&lt;/span&gt;&lt;/div&gt;" style="text;html=1;align=center;verticalAlign=middle;resizable=0;points=[];autosize=1;strokeColor=none;fillColor=none;" vertex="1" parent="1">
          <mxGeometry x="40" y="680" width="640" height="40" as="geometry" />
        </mxCell>
      </root>
    </mxGraphModel>
  </diagram>
  <diagram id="rypmnckFLnFJeupSSaUI" name="Page-2">
    <mxGraphModel dx="2074" dy="1110" grid="1" gridSize="10" guides="1" tooltips="1" connect="1" arrows="1" fold="1" page="1" pageScale="1" pageWidth="850" pageHeight="1100" math="0" shadow="0">
      <root>
        <mxCell id="0" />
        <mxCell id="1" parent="0" />
        <mxCell id="VUGyQmi_W-oH0uaiHem8-3" style="edgeStyle=orthogonalEdgeStyle;rounded=0;orthogonalLoop=1;jettySize=auto;html=1;exitX=0;exitY=0.5;exitDx=0;exitDy=0;" edge="1" parent="1" source="VUGyQmi_W-oH0uaiHem8-1" target="VUGyQmi_W-oH0uaiHem8-2">
          <mxGeometry relative="1" as="geometry" />
        </mxCell>
        <mxCell id="VUGyQmi_W-oH0uaiHem8-1" value="NewBattery()" style="rounded=1;whiteSpace=wrap;html=1;" vertex="1" parent="1">
          <mxGeometry x="480" y="160" width="120" height="40" as="geometry" />
        </mxCell>
        <mxCell id="VUGyQmi_W-oH0uaiHem8-2" value="Battery" style="rounded=1;whiteSpace=wrap;html=1;" vertex="1" parent="1">
          <mxGeometry x="380" y="160" width="60" height="40" as="geometry" />
        </mxCell>
        <mxCell id="VUGyQmi_W-oH0uaiHem8-4" value="&lt;div style=&quot;text-align: left;&quot;&gt;&lt;span style=&quot;background-color: initial;&quot;&gt;Battery {}&lt;/span&gt;&lt;/div&gt;&lt;div style=&quot;text-align: left;&quot;&gt;&lt;span style=&quot;background-color: initial;&quot;&gt;&amp;nbsp; &amp;nbsp; Positive()&lt;/span&gt;&lt;/div&gt;&lt;div style=&quot;text-align: left;&quot;&gt;&lt;span style=&quot;background-color: initial;&quot;&gt;&amp;nbsp; &amp;nbsp; Negative()&lt;/span&gt;&lt;/div&gt;" style="text;html=1;align=center;verticalAlign=middle;resizable=0;points=[];autosize=1;strokeColor=none;fillColor=none;" vertex="1" parent="1">
          <mxGeometry x="80" y="10" width="90" height="60" as="geometry" />
        </mxCell>
        <mxCell id="VUGyQmi_W-oH0uaiHem8-5" value="&lt;div style=&quot;text-align: left;&quot;&gt;&lt;span style=&quot;background-color: initial;&quot;&gt;Engine{}&lt;/span&gt;&lt;/div&gt;&lt;div style=&quot;text-align: left;&quot;&gt;&lt;span style=&quot;background-color: initial;&quot;&gt;&amp;nbsp; &amp;nbsp; Accelerate()&lt;/span&gt;&lt;/div&gt;&lt;div style=&quot;text-align: left;&quot;&gt;&lt;span style=&quot;background-color: initial;&quot;&gt;&amp;nbsp; &amp;nbsp; Decelerate()&lt;/span&gt;&lt;/div&gt;" style="text;html=1;align=center;verticalAlign=middle;resizable=0;points=[];autosize=1;strokeColor=none;fillColor=none;" vertex="1" parent="1">
          <mxGeometry x="200" y="10" width="100" height="60" as="geometry" />
        </mxCell>
        <mxCell id="VUGyQmi_W-oH0uaiHem8-6" value="Car" style="rounded=0;whiteSpace=wrap;html=1;" vertex="1" parent="1">
          <mxGeometry x="120" y="320" width="320" height="120" as="geometry" />
        </mxCell>
        <mxCell id="VUGyQmi_W-oH0uaiHem8-7" value="Positive()&lt;br&gt;Negative()" style="rounded=1;whiteSpace=wrap;html=1;dashed=1;" vertex="1" parent="1">
          <mxGeometry x="365" y="330" width="60" height="40" as="geometry" />
        </mxCell>
        <mxCell id="VUGyQmi_W-oH0uaiHem8-10" value="" style="edgeStyle=orthogonalEdgeStyle;rounded=0;orthogonalLoop=1;jettySize=auto;html=1;" edge="1" parent="1" source="VUGyQmi_W-oH0uaiHem8-8" target="VUGyQmi_W-oH0uaiHem8-9">
          <mxGeometry relative="1" as="geometry" />
        </mxCell>
        <mxCell id="VUGyQmi_W-oH0uaiHem8-8" value="NewEngine()" style="rounded=1;whiteSpace=wrap;html=1;" vertex="1" parent="1">
          <mxGeometry x="480" y="240" width="120" height="40" as="geometry" />
        </mxCell>
        <mxCell id="VUGyQmi_W-oH0uaiHem8-9" value="Engine" style="rounded=1;whiteSpace=wrap;html=1;" vertex="1" parent="1">
          <mxGeometry x="360" y="240" width="80" height="40" as="geometry" />
        </mxCell>
        <mxCell id="VUGyQmi_W-oH0uaiHem8-11" value="Accelerate()&lt;br&gt;Decelerate()" style="rounded=1;whiteSpace=wrap;html=1;dashed=1;" vertex="1" parent="1">
          <mxGeometry x="350" y="390" width="75" height="40" as="geometry" />
        </mxCell>
        <mxCell id="VUGyQmi_W-oH0uaiHem8-21" style="edgeStyle=orthogonalEdgeStyle;rounded=0;orthogonalLoop=1;jettySize=auto;html=1;exitX=0;exitY=0.5;exitDx=0;exitDy=0;entryX=1;entryY=0.5;entryDx=0;entryDy=0;" edge="1" parent="1" source="VUGyQmi_W-oH0uaiHem8-13" target="VUGyQmi_W-oH0uaiHem8-18">
          <mxGeometry relative="1" as="geometry" />
        </mxCell>
        <mxCell id="VUGyQmi_W-oH0uaiHem8-13" value="NewCar(Battery, Engine)" style="rounded=1;whiteSpace=wrap;html=1;" vertex="1" parent="1">
          <mxGeometry x="600" y="640" width="160" height="40" as="geometry" />
        </mxCell>
        <mxCell id="VUGyQmi_W-oH0uaiHem8-17" value="" style="edgeStyle=orthogonalEdgeStyle;rounded=0;orthogonalLoop=1;jettySize=auto;html=1;" edge="1" parent="1" source="VUGyQmi_W-oH0uaiHem8-14" target="VUGyQmi_W-oH0uaiHem8-13">
          <mxGeometry relative="1" as="geometry" />
        </mxCell>
        <mxCell id="VUGyQmi_W-oH0uaiHem8-14" value="Battery" style="rounded=1;whiteSpace=wrap;html=1;" vertex="1" parent="1">
          <mxGeometry x="600" y="560" width="60" height="40" as="geometry" />
        </mxCell>
        <mxCell id="VUGyQmi_W-oH0uaiHem8-16" value="" style="edgeStyle=orthogonalEdgeStyle;rounded=0;orthogonalLoop=1;jettySize=auto;html=1;" edge="1" parent="1" source="VUGyQmi_W-oH0uaiHem8-15" target="VUGyQmi_W-oH0uaiHem8-13">
          <mxGeometry relative="1" as="geometry" />
        </mxCell>
        <mxCell id="VUGyQmi_W-oH0uaiHem8-15" value="Engine" style="rounded=1;whiteSpace=wrap;html=1;" vertex="1" parent="1">
          <mxGeometry x="680" y="560" width="80" height="40" as="geometry" />
        </mxCell>
        <mxCell id="VUGyQmi_W-oH0uaiHem8-18" value="Car" style="rounded=0;whiteSpace=wrap;html=1;" vertex="1" parent="1">
          <mxGeometry x="120" y="600" width="320" height="120" as="geometry" />
        </mxCell>
        <mxCell id="VUGyQmi_W-oH0uaiHem8-19" value="Positive()&lt;br&gt;Negative()" style="rounded=1;whiteSpace=wrap;html=1;" vertex="1" parent="1">
          <mxGeometry x="365" y="610" width="60" height="40" as="geometry" />
        </mxCell>
        <mxCell id="VUGyQmi_W-oH0uaiHem8-20" value="Accelerate()&lt;br&gt;Decelerate()" style="rounded=1;whiteSpace=wrap;html=1;" vertex="1" parent="1">
          <mxGeometry x="350" y="670" width="75" height="40" as="geometry" />
        </mxCell>
      </root>
    </mxGraphModel>
  </diagram>
</mxfile>
